<?xml version="1.0" standalone="no"?>
<!DOCTYPE svg PUBLIC "-//W3C//DTD SVG 1.1//EN" "http://www.w3.org/Graphics/SVG/1.1/DTD/svg11.dtd" >
<svg xmlns="http://www.w3.org/2000/svg">
<metadata></metadata>
<defs>
<font id="karlabold" horiz-adv-x="763" >
<font-face units-per-em="2048" ascent="1638" descent="-410" />
<missing-glyph horiz-adv-x="518" />
<glyph horiz-adv-x="2048" />
<glyph horiz-adv-x="2048" />
<glyph unicode="&#xd;" horiz-adv-x="1206" />
<glyph unicode=" "  horiz-adv-x="518" />
<glyph unicode="&#x09;" horiz-adv-x="518" />
<glyph unicode="&#xa0;" horiz-adv-x="518" />
<glyph unicode="!" horiz-adv-x="600" d="M139 141.5q0 69.5 47 116.5t121 47t123 -47t49 -116.5t-49 -114.5t-123 -45t-121 45t-47 114.5zM176 1360h262l-28 -911h-207z" />
<glyph unicode="&#x22;" horiz-adv-x="784" d="M66 1405h241l-33 -487h-178zM477 1405h242l-33 -487h-178z" />
<glyph unicode="#" horiz-adv-x="1388" d="M117 336l14 158h191l34 323h-190l16 160h191l28 264h228l-29 -264h279l28 264h228l-29 -264h192l-18 -160h-190l-35 -323h192l-16 -158h-193l-28 -268h-228l29 268h-279l-28 -268h-228l29 268h-188zM549 494h278l35 323h-278z" />
<glyph unicode="$" horiz-adv-x="1411" d="M133 416h240q0 -98 63.5 -149.5t184.5 -65.5v397l-103 35q-172 57 -266 138t-94 226.5t117.5 242.5t345.5 114v155h172v-157q199 -20 303 -123t133 -266h-240q-10 61 -60 109t-136 67v-373l180 -64q154 -53 229.5 -134t75.5 -220t-119 -246q-131 -113 -366 -129v-180 h-172v184q-213 20 -350.5 131t-137.5 308zM422 989.5q0 -57.5 32.5 -91.5t104.5 -58l62 -25v330q-99 -12 -149 -55t-50 -100.5zM793 197q110 10 161.5 55t51.5 106q0 117 -148 172l-65 25v-358z" />
<glyph unicode="%" horiz-adv-x="1566" d="M125 1048q0 151 82 229.5t199.5 78.5t198.5 -79t81 -229.5t-81 -231.5t-200 -81t-199.5 81t-80.5 232zM217 0l901 1329h244l-899 -1329h-246zM305 1045.5q0 -156.5 99.5 -156.5t99.5 157t-101 156q-98 0 -98 -156.5zM893 285q0 152 82 230.5t199 78.5t198.5 -79 t81.5 -230q0 -152 -81 -233t-199 -81q-119 0 -200 81t-81 233zM1075.5 283.5q-0.5 -156.5 98.5 -156.5q43 0 71.5 36t28.5 121t-28.5 120.5t-71.5 35.5q-98 0 -98.5 -156.5z" />
<glyph unicode="&#x26;" horiz-adv-x="1976" d="M188 379q0 266 375 326l-33 30q-147 133 -147 283.5t121 241.5t323.5 91.5t322.5 -91t120 -224.5t-85 -224t-259 -157l260 -235q125 150 215 375l164 -90q-90 -256 -226 -424l35 -31q37 -33 70 -49.5t81 -16.5t82.5 36t39.5 116h219q-4 -168 -83 -266.5t-235 -98.5 q-98 0 -181 39t-175 123q-205 -162 -444.5 -162t-399.5 118t-160 290zM455 393q0 -86 74.5 -144.5t220 -58.5t282.5 91l-332 301q-246 -35 -245 -189zM649 993q0 -90 96 -174l48 -43q211 90 211 220q0 67 -47.5 107t-131.5 40t-130 -44t-46 -106z" />
<glyph unicode="'" horiz-adv-x="368" d="M63 1386h242l-33 -487h-178z" />
<glyph unicode="(" horiz-adv-x="819" d="M150 653q0 514 428 891l174 -127q-176 -184 -264.5 -369.5t-88.5 -396.5t88 -394t265 -368l-174 -131q-428 381 -428 895z" />
<glyph unicode=")" horiz-adv-x="819" d="M66 -111q178 184 266 367.5t88 394.5t-89 396.5t-265 369.5l176 127q428 -381 428 -891t-428 -895z" />
<glyph unicode="*" horiz-adv-x="837" d="M102 1157l62 143l203 -102l-25 244h164l-25 -244l203 107l61 -146l-223 -76l176 -168l-120 -104l-152 207l-156 -207l-116 104l176 166z" />
<glyph unicode="+" horiz-adv-x="1114" d="M37 397v211h399v398h242v-398h399v-211h-399v-397h-242v397h-399z" />
<glyph unicode="," horiz-adv-x="518" d="M49 -188q68 35 120 77.5t69 100.5q-58 10 -98 46t-40 96.5t47.5 103.5t129 43t133 -63.5t51.5 -156.5q0 -150 -135 -272q-43 -39 -97 -66z" />
<glyph unicode="-" d="M94 512v211h576v-211h-576z" />
<glyph unicode="." horiz-adv-x="440" d="M49 141.5q0 69.5 47 116.5t121 47t123 -47t49 -116.5t-49 -114.5t-123 -45t-121 45t-47 114.5z" />
<glyph unicode="/" horiz-adv-x="966" d="M109 -166l526 1692h248l-529 -1692h-245z" />
<glyph unicode="0" horiz-adv-x="1296" d="M96 664q0 344 149.5 518t404 174t394.5 -170q156 -182 156 -522t-149.5 -516.5t-402.5 -176.5t-402.5 174t-149.5 519zM346 664q0 -229 79 -349t223.5 -120t223 119.5t78.5 349.5q0 229 -78.5 351t-223 122t-223.5 -122t-79 -351z" />
<glyph unicode="1" horiz-adv-x="731" d="M86 997v232q154 23 270 108h183v-1337h-242v1049q-104 -51 -211 -52z" />
<glyph unicode="2" horiz-adv-x="1239" d="M123 0v227q0 240 170 348q57 37 133 66l272 104q90 35 132 87.5t42 130.5t-55 130t-157.5 52t-169 -49t-76.5 -146h-269q4 195 143.5 300t355.5 105.5t352 -112.5t136.5 -278.5t-82.5 -265t-257 -167.5l-277 -106q-80 -31 -115.5 -69t-35.5 -97v-39h759v-221h-1001z" />
<glyph unicode="3" horiz-adv-x="1273" d="M90 418h258q6 -104 85 -163.5t206 -59.5t197.5 56t70.5 143t-64.5 136.5t-203.5 49.5h-176v190h151q117 0 182.5 50t65.5 132t-56 133.5t-173 51.5q-223 0 -260 -170h-254q20 197 155.5 293t351.5 96t356 -103.5t140 -267.5q0 -102 -55 -177t-164 -112 q121 -41 193.5 -121.5t72.5 -184.5q0 -196 -146 -307.5t-376.5 -111.5t-384.5 115q-172 125 -172 332z" />
<glyph unicode="4" horiz-adv-x="1218" d="M45 295v182l680 866h233v-841h232v-207h-232v-295h-239v295h-674zM332 477h399v508z" />
<glyph unicode="5" horiz-adv-x="1191" d="M117 397h248q0 -104 69.5 -153t178 -49t179 70.5t70.5 176.5q0 203 -274 203h-406l62 684h796v-221h-563l-28 -299q111 18 210 18q207 0 330 -99t123 -294t-141 -328.5t-361.5 -134t-354.5 112.5t-138 313z" />
<glyph unicode="6" horiz-adv-x="1243" d="M96 641q0 340 156 527t420 188q201 0 324.5 -108t131.5 -283h-258q-10 80 -57 126t-130 46q-160 0 -251.5 -139.5t-91.5 -376.5q0 -88 6 -134q23 176 126 252t247 76q184 0 304 -117t120 -305t-133 -305t-348 -117q-250 0 -408 189q-158 188 -158 481zM430 403 q0 -96 66.5 -152t164 -56t165 56t67.5 152t-66.5 154.5t-165 58.5t-165 -58t-66.5 -155z" />
<glyph unicode="7" horiz-adv-x="1019" d="M49 1096v233h934v-231l-567 -1098h-326l608 1096h-649z" />
<glyph unicode="8" horiz-adv-x="1325" d="M100 358q0 125 87 202t223 93q-178 86 -242 224q-23 51 -23 116q0 168 134.5 265.5t367 97.5t382 -107.5t149.5 -273.5q0 -100 -69 -179t-198 -102q170 -68 242 -143.5t72 -198.5q0 -170 -151 -275t-407.5 -105.5t-412.5 110.5q-154 106 -154 276zM350 379 q-1 -83 92 -135q82 -49 230.5 -49t225.5 39.5t77 98t-38 94.5t-103 62l-213 80q-186 -12 -252 -118q-18 -31 -19 -72zM395 974q0 -77 135 -132l154 -60q98 0 172 49q72 49 72 129t-74 128.5t-190.5 48.5t-192.5 -43t-76 -120z" />
<glyph unicode="9" horiz-adv-x="1249" d="M109 936q0 186 133 303t360.5 117t390 -186.5t162.5 -483.5q0 -514 -307 -666q-102 -49 -222 -49q-224 0 -364 117q-139 117 -139 305h252q4 -92 66.5 -145t158.5 -53q311 0 311 512q0 55 -8 120q-27 -160 -127 -236.5t-246 -76.5q-186 0 -303.5 118t-117.5 304z M358 922.5q0 -99.5 67 -154.5t164 -55t165 59t67.5 152.5t-67 151.5t-164.5 58.5t-165 -56t-67 -156z" />
<glyph unicode=":" horiz-adv-x="552" d="M104 176q0 70 47.5 117t120.5 47q74 0 123 -47t49 -117t-49 -115t-123 -45q-73 0 -120.5 45t-47.5 115zM104 784.5q0 69.5 47.5 116.5t120.5 47q74 0 123 -47t49 -116.5t-49 -114.5t-123 -45q-73 0 -120.5 45t-47.5 114.5z" />
<glyph unicode=";" horiz-adv-x="630" d="M111 -188q68 35 120 77.5t68 100.5q-57 10 -97 46t-40 96.5t47 103.5t129 43t133 -63.5t51 -156.5q0 -150 -135 -272q-43 -39 -96 -66zM174 784.5q0 69.5 47 116.5t121 47t123 -47t49 -116.5t-49 -114.5t-123 -45t-121 45t-47 114.5z" />
<glyph unicode="&#x3c;" horiz-adv-x="1028" d="M92 551v219l684 494l160 -185l-596 -420l596 -417l-160 -185z" />
<glyph unicode="=" horiz-adv-x="1036" d="M162 195v211h712v-211h-712zM162 627v209h712v-209h-712z" />
<glyph unicode="&#x3e;" horiz-adv-x="1028" d="M92 242l594 417l-594 420l160 185l684 -494v-219l-684 -494z" />
<glyph unicode="?" horiz-adv-x="1058" d="M49 963q10 178 131 285.5t339 107.5t346 -106.5t128 -264.5q0 -109 -53 -181.5t-158.5 -125.5t-135.5 -88t-38 -64.5t-8 -68.5v-60h-242v82q0 184 111 262q39 29 114.5 68t109.5 79t34 102.5t-51 104.5t-151.5 42t-158 -48.5t-65.5 -125.5h-252zM317 133q0 70 46.5 115 t121 45t123.5 -45t49 -115t-49 -116t-123.5 -46t-121 46t-46.5 116z" />
<glyph unicode="@" horiz-adv-x="2103" d="M137 441.5q0 195.5 76 366.5t211 293t320.5 188.5t389 66.5t361.5 -58.5t269.5 -161t173 -240.5t61.5 -287.5t-43 -259t-111.5 -184.5t-158 -114t-184.5 -39t-156.5 36t-79.5 102l-13 32q-89 -170 -243 -170q-151 0 -254 107q-104 113 -105 274q0 211 145.5 359.5 t348.5 148.5q135 0 216 -81t81 -245v-268q0 -104 71 -104q85 0 154 92q88 115 88 305q0 238 -164 388.5t-444 150.5q-338 0 -552 -207t-214 -513t208 -486t576 -181v-198q-233 0 -422.5 68.5t-324.5 186t-208 277.5t-73 355.5zM870 397q0 -92 48.5 -140t119.5 -48 q72 0 120 40t89 120v204q0 142 -100 142q-108 0 -192 -91t-85 -227z" />
<glyph unicode="A" horiz-adv-x="1282" d="M45 0l453 1329h303l436 -1329h-256l-92 287h-494l-94 -287h-256zM457 469h372l-184 571z" />
<glyph unicode="B" horiz-adv-x="1327" d="M190 0v1329h537q221 0 339 -100t118 -252q0 -113 -62.5 -192.5t-175.5 -112.5q113 -23 186.5 -101.5t73.5 -201.5q0 -246 -243 -336q-92 -33 -234 -33h-539zM432 211h291q117 0 169 47t52 125t-54 126t-167 48h-291v-346zM432 768h285q109 0 164 47t55 128t-54.5 129 t-162.5 48h-287v-352z" />
<glyph unicode="C" horiz-adv-x="1298" d="M96 670q0 326 159 506t400.5 180t375.5 -108.5t173 -297.5l-258 -47q-33 104 -101.5 169t-170.5 65q-139 0 -228 -122q-90 -123 -90 -349q0 -224 82 -348q82 -126 223.5 -125.5t213 69t71.5 176.5h260q0 -223 -142 -345t-398 -122t-413 186.5t-157 512.5z" />
<glyph unicode="D" horiz-adv-x="1404" d="M188 0v1329h433q303 0 490 -180t187 -484t-187 -484.5t-490 -180.5h-433zM432 219h189q188 0 302 125q114 124 114 320q1 198 -113 322q-112 124 -303 124h-189v-891z" />
<glyph unicode="E" horiz-adv-x="1200" d="M188 0v1329h856v-209h-614v-350h576v-209h-576v-350h614v-211h-856z" />
<glyph unicode="F" horiz-adv-x="1120" d="M190 0v1329h838v-209h-596v-350h545v-207h-545v-563h-242z" />
<glyph unicode="G" horiz-adv-x="1386" d="M96 665.5q0 310.5 177 500t452 190.5q186 0 312 -81t198 -255l-248 -57q-109 174 -267.5 174t-260.5 -130q-103 -131 -103 -346q0 -212 94 -339q93 -127 235 -127t227 85t85 234v8l-299 6v156h531v-684h-197l-26 211q-86 -240 -333 -240t-412 192t-165 502.5z" />
<glyph unicode="H" horiz-adv-x="1445" d="M190 0v1329h242v-555h580v555h241v-1329h-241v563h-580v-563h-242z" />
<glyph unicode="I" horiz-adv-x="622" d="M190 0v1329h242v-1329h-242z" />
<glyph unicode="J" horiz-adv-x="909" d="M33 55v242q158 -90 305 -90q88 0 128 51t40 156v915h244v-915q0 -229 -104.5 -335.5t-276.5 -106.5q-1 -1 -2 -1q-171 0 -334 84z" />
<glyph unicode="K" horiz-adv-x="1339" d="M190 0v1329h244v-547l524 547h332l-585 -598l624 -731h-313l-473 563l-109 -110v-453h-244z" />
<glyph unicode="L" horiz-adv-x="1011" d="M190 0v1329h242v-1118h547v-211h-789z" />
<glyph unicode="M" horiz-adv-x="1789" d="M190 0v1329h347l364 -790l365 790h333v-1329h-243v1010l-377 -865h-158l-389 893v-1038h-242z" />
<glyph unicode="N" horiz-adv-x="1468" d="M186 0v1329h265l585 -942v942h242v-1329h-246l-604 975v-975h-242z" />
<glyph unicode="O" horiz-adv-x="1398" d="M96 667.5q0 338.5 162.5 513.5t438.5 175t441 -177t165 -514t-168 -522q-160 -172 -435.5 -172t-439.5 179t-164 517.5zM346 662.5q0 -228.5 96.5 -350.5t258 -122t257 122t95.5 350.5t-95.5 352.5t-257 124t-258 -124t-96.5 -352.5z" />
<glyph unicode="P" horiz-adv-x="1189" d="M184 0v1329h469q226 0 351.5 -109.5t125.5 -313.5t-125.5 -313.5t-351.5 -109.5h-225v-483h-244zM428 694h225q113 0 170.5 59.5t57.5 152.5t-57.5 153.5t-170.5 60.5h-225v-426z" />
<glyph unicode="Q" horiz-adv-x="1404" d="M96 672q0 334 163 509t438 175t440.5 -177t165.5 -513q0 -276 -106.5 -441.5t-287.5 -222.5l33 -51q49 -76 141 -78h8q89 0 195 45v-250q-84 -37 -182 -37q-199 0 -336 207l-88 133q-264 4 -422 181q-162 186 -162 520zM346 662.5q0 -228.5 96.5 -350.5t258 -122t257 122 t95.5 350.5t-95.5 352.5t-257 124t-258 -124t-96.5 -352.5z" />
<glyph unicode="R" horiz-adv-x="1318" d="M190 0v1329h492q236 0 366 -110.5t130 -296.5q0 -141 -80 -241.5t-230 -139.5l357 -541h-316l-293 518h-184v-518h-242zM432 680h227q133 0 201 60.5t68 159.5t-61.5 159.5t-184.5 60.5h-250v-440z" />
<glyph unicode="S" horiz-adv-x="1306" d="M133 416h240q0 -221 305 -221q84 0 155.5 42t71.5 112.5t-39 108.5t-127 70l-264 105q-154 59 -235.5 139t-81.5 233.5t130 251.5q130 99 354 99h2q222 0 344 -104t140 -289h-239q-33 174 -246 174q-104 0 -162.5 -42t-58.5 -101.5t38 -93.5t118 -62l288 -113 q147 -57 227.5 -144t80.5 -219q0 -180 -135.5 -285.5t-371 -105.5t-372.5 109q-154 119 -162 336z" />
<glyph unicode="T" horiz-adv-x="1089" d="M12 1120v209h1065v-209h-411v-1120h-242v1120h-412z" />
<glyph unicode="U" horiz-adv-x="1413" d="M170 502v827h242v-827q0 -164 83 -235.5t214 -71.5t214 71.5t83 235.5v827h241v-827q0 -254 -141 -392.5t-397 -138.5t-397.5 138.5t-141.5 392.5z" />
<glyph unicode="V" horiz-adv-x="1243" d="M41 1329h256l324 -1026l327 1026h254l-457 -1329h-253z" />
<glyph unicode="W" horiz-adv-x="1978" d="M41 1329h270l293 -1010l285 922h164l301 -926l311 1014h272l-456 -1329h-254l-250 750l-248 -750h-254z" />
<glyph unicode="X" horiz-adv-x="1400" d="M68 1329h297l335 -479l291 479h293l-448 -663l493 -666h-303l-350 471l-311 -471h-295l469 662z" />
<glyph unicode="Y" horiz-adv-x="1236" d="M33 1329h286l293 -530l308 530h284l-473 -780v-549h-242v549z" />
<glyph unicode="Z" horiz-adv-x="1288" d="M150 0v209l702 897l-702 2v221h1005v-207l-700 -899l700 -2v-221h-1005z" />
<glyph unicode="[" horiz-adv-x="720" d="M190 -289v1907h506v-217h-264v-1471h264v-219h-506z" />
<glyph unicode="\" horiz-adv-x="966" d="M84 1528h246l528 -1692h-248z" />
<glyph unicode="]" horiz-adv-x="688" d="M-8 -70h264v1471h-264v217h506v-1907h-506v219z" />
<glyph unicode="^" horiz-adv-x="1079" d="M41 446l405 789h197l404 -789h-267l-235 504l-238 -504h-266z" />
<glyph unicode="_" horiz-adv-x="1572" d="M113 -113h1349v-211h-1349v211z" />
<glyph unicode="`" horiz-adv-x="729" d="M49 1634l86 209l547 -270l-61 -152z" />
<glyph unicode="a" horiz-adv-x="1196" d="M113 294q0 138 108.5 213t296.5 75q119 0 275 -39v98q0 104 -42 154.5t-137.5 50.5t-146.5 -38t-51 -108h-264q0 170 119.5 246t334.5 76q307 0 398 -215q30 -72 30 -168v-6v-633h-211l-18 133q-96 -162 -292 -162t-298 92.5t-102 230.5zM416 196q45 -40 144 -40 t164 66.5t69 166.5q-121 33 -226 33q-196 0 -196 -130q0 -56 45 -96z" />
<glyph unicode="b" horiz-adv-x="1257" d="M190 0v1405h242v-535q94 152 281.5 152t313.5 -143.5t126 -377t-131 -381.5t-324 -149q-92 0 -168.5 49.5t-121.5 151.5l-60 -172h-158zM432 428q4 -104 74 -171t167 -67t166.5 85t69.5 224.5t-68.5 222.5t-171 83t-170 -67.5t-67.5 -178.5v-131z" />
<glyph unicode="c" horiz-adv-x="1085" d="M96 506q0 234 137 375t326.5 141t304.5 -115q102 -98 121 -248l-244 -6q-16 66 -60 109t-101 43q-112 0 -176 -79t-64 -230.5t65.5 -228.5t158.5 -77t135 44.5t42 119.5h244q0 -164 -109.5 -273.5t-307.5 -109.5t-334 149q-138 149 -138 386z" />
<glyph unicode="d" horiz-adv-x="1257" d="M104 504q0 232 126 374q126 144 312.5 144t280.5 -150v533h244v-1405h-199l-28 154q-92 -182 -283 -183q-190 0 -321 149q-132 150 -132 384zM348 499.5q0 -139.5 69.5 -224.5t167 -85t168.5 71t70 179v129q-4 106 -68 170.5t-167 64.5q-1 0 -1 1q-103 0 -171 -83 t-68 -222.5z" />
<glyph unicode="e" horiz-adv-x="1085" d="M96 501.5q0 236.5 134 378.5t337 142t318 -145q51 -66 76.5 -152t25.5 -157.5t-8 -129.5h-643q4 -121 59.5 -196.5t167.5 -75.5q150 0 178 131h244q-25 -150 -139.5 -238t-297 -88t-317.5 147t-135 383.5zM338 592h424q0 162 -103 217q-39 20 -94 20q-102 0 -159.5 -66.5 t-67.5 -170.5z" />
<glyph unicode="f" horiz-adv-x="749" d="M82 834v161h147v117q0 154 86 232q85 77 214 77h3q84 0 207 -24l-47 -187q-57 20 -102 20q-49 0 -82 -24q-35 -26 -35 -96v-115h182v-161h-182v-834h-244v834h-147z" />
<glyph unicode="g" horiz-adv-x="1191" d="M31 -178q0 92 56 146.5t149 68.5q-121 74 -121 182q0 72 44.5 120.5t116.5 68.5q-121 102 -121 259q0 159 126 257q125 98 283.5 98t264.5 -59q12 117 99.5 188.5t204.5 71.5l-13 -232q-176 0 -182 -117q76 -94 76 -192q0 -178 -129 -276q-123 -98 -299 -99 q-100 0 -183 31q-82 -25 -81 -98q0 -92 155 -93h334q340 0 340 -237q0 -80 -40 -157t-116 -136q-168 -131 -418 -131t-398 98t-148 238zM268 -168q0 -70 81 -112t191 -42q185 0 279 68q92 61 92 148q0 37 -25.5 60t-74.5 23h-350q-193 -8 -193 -145zM395 667 q0 -83 49.5 -136.5t143.5 -53.5t140 53.5t46 136.5t-46 135t-140 52t-143.5 -52t-49.5 -135z" />
<glyph unicode="h" horiz-adv-x="1275" d="M190 0v1405h242v-571q102 188 299 188t290 -121t93 -319v-582h-242v582q0 111 -53 167t-149.5 56t-165 -86t-72.5 -258v-461h-242z" />
<glyph unicode="i" horiz-adv-x="671" d="M182 1317q0 66 39 103.5t110 37.5t110.5 -38t39.5 -103q0 -66 -40 -103.5t-110.5 -37.5t-109.5 37.5t-39 103.5zM211 0v997h242v-997h-242z" />
<glyph unicode="j" horiz-adv-x="686" d="M-156 -451l4 209q123 -61 211 -61t127 42t39 146v1114h242v-1118q0 -213 -89 -304t-231.5 -91t-302.5 63zM195 1317q0 66 39.5 103.5t110.5 37.5t110 -38t39 -103q0 -66 -39 -103.5t-110 -37.5t-110.5 37.5t-39.5 103.5z" />
<glyph unicode="k" horiz-adv-x="1177" d="M190 0v1405h242v-760l393 350h328l-440 -368l465 -627h-295l-340 485l-111 -92v-393h-242z" />
<glyph unicode="l" horiz-adv-x="622" d="M190 0v1405h242v-1405h-242z" />
<glyph unicode="m" horiz-adv-x="1943" d="M190 0v995h211l27 -172q98 199 315 199q125 0 208 -57.5t124 -157.5q96 215 338 215q178 0 274.5 -118t96.5 -322v-582h-244v582q0 111 -53 167t-149.5 56t-158 -84t-65.5 -254v-467h-242v582q0 111 -53 167t-149.5 56t-165 -86t-72.5 -258v-461h-242z" />
<glyph unicode="n" horiz-adv-x="1275" d="M190 0v995h211l27 -172q98 199 315 199q184 0 277.5 -121t93.5 -319v-582h-242v582q0 111 -53 167t-149.5 56t-165 -86t-72.5 -258v-461h-242z" />
<glyph unicode="o" horiz-adv-x="1159" d="M96 499q0 253 136 388t349.5 135t347.5 -136t134 -388t-134 -389.5t-347 -137.5t-349 136q-137 136 -137 392zM340 497.5q0 -157.5 62.5 -236.5t170.5 -79q109 0 178.5 79t69.5 236.5t-61.5 236.5t-171 79t-179 -79t-69.5 -236.5z" />
<glyph unicode="p" horiz-adv-x="1249" d="M190 -485v1480h199l23 -135q94 162 282 162t323.5 -143t135.5 -382t-136 -382t-319 -143q0 -1 -1 -1q-181 0 -265 109v-565h-242zM432 401q0 -96 65.5 -153.5t162.5 -57.5t173 81t76 225.5t-70.5 226.5t-172 82t-166 -58.5t-68.5 -166.5v-179z" />
<glyph unicode="q" horiz-adv-x="1249" d="M96 498q0 237 133 380q133 144 320 144q92 0 171 -44t128 -136l53 153h158v-1149q0 -88 21.5 -116.5t48 -42t65.5 -25.5l-70 -176q-168 41 -238.5 131t-70.5 248v264q-74 -158 -260.5 -158t-316.5 140q-142 148 -142 387zM340 497q0 -144 77 -225.5t170 -81.5t158.5 54.5 t69.5 146.5v178q0 113 -65.5 174.5t-167 61.5t-172 -82t-70.5 -226z" />
<glyph unicode="r" horiz-adv-x="851" d="M190 0v997h242v-198q90 215 270 215q35 0 89 -15l-5 -241q-57 12 -112 12q-242 0 -242 -334v-436h-242z" />
<glyph unicode="s" horiz-adv-x="1079" d="M100 303h226q4 -141 206 -141q78 0 128.5 33.5t50.5 78.5t-31 70t-96 45l-217 78q-242 84 -242 274q0 127 113.5 204t305 77t295 -84t107.5 -211h-227q-4 49 -47 78t-123 29t-124 -32t-44 -73q0 -72 121 -106l235 -88q117 -39 179.5 -99.5t62.5 -156.5q0 -123 -119 -215 q-120 -92 -318 -92q-1 0 -2 -1q-197 0 -317 87q-121 87 -123 245z" />
<glyph unicode="t" horiz-adv-x="808" d="M66 834v161h139v262h241v-262h271v-161h-271v-549q0 -123 117 -123q59 0 154 33l35 -170q-135 -53 -213 -53h-4q-146 0 -236 73q-94 84 -94 231v558h-139z" />
<glyph unicode="u" horiz-adv-x="1284" d="M170 362v635h242v-610q0 -98 47 -146t115 -48q129 0 201.5 82.5t76.5 230.5v491h242v-997h-242v180q-94 -198 -301 -198h-2q-264 0 -348 206q-31 72 -31 174z" />
<glyph unicode="v" horiz-adv-x="1062" d="M25 995h278l227 -755l230 755h278l-370 -995h-273z" />
<glyph unicode="w" horiz-adv-x="1552" d="M25 995h254l200 -710l191 655h219l190 -657l203 712h242l-328 -995h-238l-184 596l-180 -596h-240z" />
<glyph unicode="x" horiz-adv-x="1134" d="M33 0l387 496l-387 501h297l243 -319l232 319h295l-385 -501l385 -496h-295l-246 319l-229 -319h-297z" />
<glyph unicode="y" horiz-adv-x="1032" d="M0 -236q104 -67 212 -67h3q72 0 118 57.5t75 149.5l30 96l-399 995h274l240 -716l209 716h246l-381 -1175q-59 -178 -144.5 -256t-217.5 -78t-265 65v213z" />
<glyph unicode="z" horiz-adv-x="1013" d="M117 0v197l516 602h-516v196h782v-196l-500 -602h500v-197h-782z" />
<glyph unicode="{" horiz-adv-x="800" d="M145 532v244h52q41 0 54 32t13 118v188q0 367 289 475q100 39 240 39v-219q-152 0 -220.5 -72.5t-68.5 -226.5v-197q0 -98 -38 -161.5t-97 -92.5v-10q59 -29 97 -92t38 -162v-196q0 -154 68.5 -226.5t220.5 -72.5v-219q-268 0 -398.5 138t-130.5 378v186q0 86 -13 117.5 t-54 31.5h-52z" />
<glyph unicode="|" horiz-adv-x="622" d="M190 -250v1829h242v-1829h-242z" />
<glyph unicode="}" horiz-adv-x="800" d="M8 -100q152 0 220.5 72.5t68.5 226.5v196q0 98 38 162t97 92v10q-59 29 -97 92.5t-38 161.5v197q0 154 -68.5 226.5t-220.5 72.5v219q268 0 398.5 -138t130.5 -376v-188q0 -86 13 -118t54 -32h51v-244h-51q-41 0 -54 -31.5t-13 -117.5v-186q0 -369 -289 -480 q-100 -37 -240 -36v219z" />
<glyph unicode="~" horiz-adv-x="1167" d="M117 487q35 133 97 210t165 77q70 0 214 -55.5t193 -54.5q84 0 134 114l131 -84q-82 -260 -283 -260q-68 0 -209 58q-76 27 -113.5 39t-68.5 12q-78 0 -131 -125z" />
<glyph unicode="&#xa3;" horiz-adv-x="1232" d="M45 0v219h66q76 0 106.5 43t30.5 135v178h-170v162h170v172q0 221 114.5 334t303.5 113q344 0 393 -359h-238q-21 140 -163 140q-70 0 -119.5 -55.5t-49.5 -172.5v-172h351v-162h-351v-161q0 -133 -73 -195h278q102 0 146.5 38t54.5 120h264q-8 -188 -110 -279 q-115 -98 -353 -98h-651z" />
<glyph unicode="&#xa8;" horiz-adv-x="782" d="M49 1711q0 58 40 97t104 39q63 0 104 -39t41 -97t-41 -96t-104 -38q-64 0 -104 38t-40 96zM444 1712q0 59 41 98t103.5 39t103.5 -38.5t41 -98.5q0 -59 -41 -96t-103.5 -37t-103.5 37t-41 96z" />
<glyph unicode="&#xad;" d="M94 512v211h576v-211h-576z" />
<glyph unicode="&#xb4;" horiz-adv-x="729" d="M47 1573l547 270l86 -209l-571 -213z" />
<glyph unicode="&#x2c6;" horiz-adv-x="952" d="M49 1540l428 330l426 -330l-153 -121l-273 207l-274 -207z" />
<glyph unicode="&#x2dc;" horiz-adv-x="806" d="M47 1554q25 125 83 194t124.5 69t140.5 -38t99.5 -50.5t50.5 -12.5q66 0 108 101l103 -68q-23 -111 -81.5 -181.5t-123.5 -70.5q-37 0 -73 14.5t-108.5 51t-105.5 36.5q-72 0 -121 -102z" />
<glyph unicode="&#x2000;" horiz-adv-x="935" />
<glyph unicode="&#x2001;" horiz-adv-x="1870" />
<glyph unicode="&#x2002;" horiz-adv-x="935" />
<glyph unicode="&#x2003;" horiz-adv-x="1870" />
<glyph unicode="&#x2004;" horiz-adv-x="623" />
<glyph unicode="&#x2005;" horiz-adv-x="467" />
<glyph unicode="&#x2006;" horiz-adv-x="311" />
<glyph unicode="&#x2007;" horiz-adv-x="311" />
<glyph unicode="&#x2008;" horiz-adv-x="233" />
<glyph unicode="&#x2009;" horiz-adv-x="374" />
<glyph unicode="&#x200a;" horiz-adv-x="103" />
<glyph unicode="&#x2010;" d="M94 512v211h576v-211h-576z" />
<glyph unicode="&#x2011;" d="M94 512v211h576v-211h-576z" />
<glyph unicode="&#x2012;" d="M94 512v211h576v-211h-576z" />
<glyph unicode="&#x2013;" horiz-adv-x="1075" d="M113 512v211h850v-211h-850z" />
<glyph unicode="&#x2014;" horiz-adv-x="1572" d="M113 512v211h1349v-211h-1349z" />
<glyph unicode="&#x2018;" horiz-adv-x="555" d="M74 1000.5q0 95.5 66.5 187.5t176.5 147l170 -94q-158 -74 -190 -178q57 -10 97 -45t40 -95.5t-46 -103.5t-128 -43t-134 64.5t-52 160z" />
<glyph unicode="&#x2019;" horiz-adv-x="555" d="M59 868q158 80 191 181q-59 10 -99 44.5t-40 96t47 103.5t128 42t133 -64.5t52 -159.5t-66.5 -187.5t-177.5 -147.5z" />
<glyph unicode="&#x202f;" horiz-adv-x="374" />
<glyph unicode="&#x205f;" horiz-adv-x="467" />
<glyph unicode="&#x20a8;" horiz-adv-x="1236" d="M170 504v137h158q150 4 226.5 65.5t92.5 157.5h-477v137h469q-23 86 -102.5 139.5t-225.5 53.5h-141v135h950v-135h-372q123 -74 153 -193h219v-137h-213q-14 -131 -110.5 -224t-298.5 -124l534 -516h-340z" />
<glyph unicode="&#xe000;" horiz-adv-x="993" d="M0 0v993h993v-993h-993z" />
</font>
</defs>
</svg>
